<?xml version="1.0" encoding="utf-8"?>
<!-- Generator: Adobe Illustrator 22.1.0, SVG Export Plug-In . SVG Version: 6.00 Build 0)  -->
<svg version="1.2" baseProfile="tiny" id="Ebene_1" xmlns="http://www.w3.org/2000/svg" xmlns:xlink="http://www.w3.org/1999/xlink"
	 x="0px" y="0px" viewBox="0 0 198.4 47.5" xml:space="preserve">
<title>cen-logo</title>
<linearGradient id="SVGID_1_" gradientUnits="userSpaceOnUse" x1="64.1315" y1="84.5064" x2="134.2985" y2="-37.0264">
	<stop  offset="0" style="stop-color:#00F0F0"/>
	<stop  offset="1" style="stop-color:#EFF000"/>
</linearGradient>
<rect fill="url(#SVGID_1_)" width="198.4" height="47.5"/>
<g>
	<path fill="#4F4F4F" d="M40.5,26.8c-1.2,1.1-2.8,1.7-4.4,1.8c-2.3,0.1-4.3-1.7-4.4-4h10.2c0,0,0.1-0.9,0.1-1.4c0-4-2.3-7.1-6.6-7.1
		l0,0c-4.4,0-7.5,3.2-7.5,7.8c0,0.2,0,0.4,0,0.5c0.2,4.2,3.7,7.5,7.9,7.3c2.3,0,4.4-0.8,6.2-2.2L40.5,26.8z M35.3,19
		c1.7,0,3,1.3,3,3h-6.6C32,20.2,33.5,18.9,35.3,19z"/>
	<path fill="#4F4F4F" d="M126.1,26.8c-1.2,1.1-2.8,1.7-4.4,1.8c-2.3,0.1-4.3-1.7-4.4-4h10.2c0,0,0.1-0.9,0.1-1.4
		c0-4-2.3-7.1-6.5-7.1l0,0c-4.4,0-7.5,3.2-7.5,7.8c0,0.2,0,0.4,0,0.6c0.2,4.2,3.7,7.5,7.9,7.3c2.3,0,4.4-0.8,6.2-2.2L126.1,26.8z
		 M121,19c1.7,0,3,1.3,3,3h-6.6C117.7,20.2,119.2,18.9,121,19z"/>
	<path fill="#4F4F4F" d="M58.2,28.2c-0.3,0-0.5-0.3-0.5-0.6v-5.6c0-4.2-1.9-5.9-5.2-5.9c-2.2-0.1-4.2,1.2-5.2,3.1h-0.1
		c0-0.2,0.1-0.4,0.1-0.7V18c0-1.1-0.6-1.7-1.9-1.7h-5.8c1.2,0.7,2.1,1.7,2.5,3h0.9c0.4,0,0.8,0.2,0.8,0.6v11.4h3.6v-6.9
		c0-0.7,0.1-1.4,0.3-2c0.5-1.8,2.1-3.1,4-3c1.9,0,2.3,1.2,2.3,3v6.8c0,1.4,0.6,2,2,2h3.4v-3.1h-1C58.3,28.2,58.2,28.2,58.2,28.2z"/>
	<path fill="#4F4F4F" d="M79.2,16.4c0,0-0.3-0.2-1.8-0.2c-2.2,0.1-4.1,1.7-4.7,3.8h-0.1c0-0.3,0.1-0.6,0.1-0.9v-0.9
		c0-1.3-0.7-1.8-2-1.8H64v-4.8h-3.5v4.7h-4.2c1,0.7,1.7,1.8,1.9,3h2.2v6.4c0,5,3.9,5.6,5.9,5.6H67v-3.2h-0.3c-0.2,0-0.4,0-0.6,0
		c-1.4-0.2-2.3-1.4-2.1-2.8v-6l4.5,0c0.1,0,0.1,0,0.2,0c0.3,0,0.5,0.3,0.5,0.6v11.4h3.7v-5.9c0-0.8,0.1-1.6,0.3-2.4
		c0.5-2,2.3-3.4,4.4-3.4C77.4,18.3,78.1,17.1,79.2,16.4z"/>
	<path fill="#4F4F4F" d="M148.1,28.2c-1.4-0.2-2.3-1.5-2.1-2.8v-6l4.2,0c0-1.2,0.6-2.4,1.7-3H146v-4.8h-3.6v4.8h-4.1
		c1.1,0.5,1.7,1.5,1.7,2.6v0.3h2.3v6.5c0,5,4.1,5.6,6.2,5.6h0.5v-3.3h-0.2C148.5,28.2,148.3,28.2,148.1,28.2z"/>
	<path fill="#4F4F4F" d="M92,29.5v-1.2h-1.2c0,0-0.1,0-0.1,0c-0.3,0-0.6-0.3-0.5-0.6v-5.6c0-3.4-1.4-6-6.4-6c-1.5,0-5.4,0.3-5.4,3.6
		v1.2h3.4v-1c0-0.8,1.3-1,2-1c1.9,0,2.7,0.8,2.7,2.9V22H86c-2.4,0-8.8,0.4-8.7,5.1c0,3,2.4,4.7,5,4.7c1.9,0.1,3.6-1,4.5-2.6h0.1
		c0,0,0,0.3,0,0.6c0,0.9,0.5,1.6,1.9,1.6h4C92.7,31.4,92,31,92,29.5z M86.6,24.9c0,1.8-1.4,3.9-3.4,3.9h0c-0.1,0-0.1,0-0.2,0
		c-1.1,0-2-0.8-2-2c0-2.1,3.1-2.4,5-2.4h0.6V24.9z"/>
	<path fill="#4F4F4F" d="M97.1,28.3c-0.3,0-0.5-0.3-0.5-0.6v-14c0-1.4-0.6-2-2-2h-2.9v3.2h0.5c0.4,0,0.6,0.4,0.6,0.8l0,13.8
		c0,1.4,0.6,2,2,2h3.4v-3.1h-1C97.2,28.3,97.2,28.3,97.1,28.3z"/>
	<path fill="#4F4F4F" d="M164.7,29.5v-1.2h-1.2c0,0-0.1,0-0.1,0c-0.3,0-0.6-0.3-0.5-0.6v-5.6c0-3.4-1.5-6-6.4-6
		c-1.5,0-5.4,0.3-5.4,3.6v1.2h3.4v-1c0-0.8,1.3-1,2-1c1.9,0,2.7,0.8,2.7,2.9V22h-0.5l0.1,0c-2.4,0-8.8,0.4-8.8,5.1
		c0,3,2.4,4.7,5,4.7c1.8,0,3.5-1,4.4-2.6h0.1c0,0,0,0.3,0,0.6c0,0.9,0.5,1.6,1.9,1.6h4C165.3,31.4,164.7,31,164.7,29.5z M159.3,24.9
		c0,1.8-1.4,3.9-3.4,3.9h0c-0.1,0-0.1,0-0.2,0c-1.1,0-2-0.8-2-2c0-2.1,3.1-2.4,5-2.4h0.6V24.9z"/>
	<path fill="#4F4F4F" d="M169.8,28.3c-0.3,0-0.6-0.3-0.5-0.6v-14c0-1.4-0.6-2-2-2h-2.9v3.2h0.5c0.4,0,0.6,1.1,0.6,1.5l0,13.1
		c0,1.4,0.6,2,2,2h3.4v-3.1h-1.1C169.9,28.3,169.9,28.3,169.8,28.3z"/>
	<path fill="#4F4F4F" d="M111,16.4c-1.2,0-1.6,0.7-1.6,1.4v0.4h-0.1c0,0-1.1-2.1-4.6-2.1l0,0c-4.3,0-6.6,3.3-6.6,7.5
		c0,4.1,2.4,7.6,6.6,7.6c1.6,0.1,3.2-0.6,4.1-1.9c0,0,0,0.4,0,0.8v0.7c-0.1,1.9-1.6,3.5-3.5,3.5h-5.3l-1.9,3.2h6.6
		c3.6,0,7.8-2.6,7.8-7V20c0,0,0-0.1,0-0.1c0-0.3,0.3-0.5,0.6-0.5h0.6v-3H111z M105.6,27.9c-2.4,0-3.7-2-3.7-4.5
		c0-2.5,1.2-4.2,3.5-4.2c2,0,3.7,0.9,3.7,4.3C109.1,26.9,107.4,27.9,105.6,27.9z"/>
	<path fill="#4F4F4F" d="M131.9,20.3c0-0.9,0.9-1.4,2.2-1.4c0.9,0,1.9,0.4,1.9,1.1v1h3.2v-1.8c0-2.4-3.2-3.1-5.2-3.1
		c-3.1,0-5.7,1.4-5.7,4.4c0,5,8,3.8,8.1,6.2c0.1,1.5-1.3,1.9-2.7,1.9c-1.5-0.1-3-0.8-4.1-1.8l-1.5,2.7c1.7,1.4,3.8,2.2,5.9,2.3
		c3.3,0,6-1.9,6-4.7C140.1,21.9,131.9,23.2,131.9,20.3z"/>
	<path fill="#4F4F4F" d="M178.8,28.1c-0.2,0-0.3,0-0.5,0c-1.5-0.1-2.5-1.4-2.4-2.8v-5.9h3.8v-3h-3.8v-4.8h-3.6v4.7h-2.2v3h2.1v6.4
		c0,5,4.1,5.6,6.1,5.6h1.4v-3.3H178.8z"/>
	<path fill="#4F4F4F" d="M22.1,28.5c-0.1,0-0.3,0-0.4,0c-2.4-0.1-4.3-2.2-4.2-4.6c0-0.1,0-0.2,0-0.3c0-2.4,2-4.4,4.4-4.4
		c0.9,0,2.1,0.4,2.1,1.2V21h3.3v-1.5c0-2.6-3.4-3.4-5.4-3.4l0,0c-0.2,0-0.4,0-0.6,0c-4.2,0.1-7.6,3.6-7.5,7.8c0,0.2,0,0.4,0,0.6
		c0.2,4.2,3.8,7.5,8,7.2c2.6,0.1,5.1-0.8,7-2.5c-0.7-0.8-1.2-1.8-1.4-2.9C25.9,27.7,24.1,28.4,22.1,28.5z"/>
</g>
<path fill="#4F4F4F" d="M184.2,11.6c2.1-0.1,3.9,1.6,4,3.8c0.1,2.1-1.6,3.9-3.8,4s-3.9-1.6-4-3.8c0,0,0-0.1,0-0.1
	C180.4,13.3,182.1,11.6,184.2,11.6z M184.3,18.5c1.7,0,3.1-1.3,3-2.9c0,0,0,0,0-0.1c0.1-1.6-1.2-2.9-2.8-3c-1.7-0.1-3.1,1.1-3.2,2.7
	c0,0.1,0,0.2,0,0.3C181.2,17.1,182.5,18.4,184.3,18.5C184.2,18.5,184.2,18.5,184.3,18.5z M182.9,14.2h-0.3v-0.7h2
	c0.6-0.1,1.2,0.4,1.3,1.1c0,0,0,0.1,0,0.1c0,0.5-0.3,0.9-0.7,1l0,0c0.1,0,0.2,0.1,0.2,0.2l0.3,0.6c0,0.1,0.1,0.1,0.2,0.1h0.1v0.6
	h-0.5c-0.2,0-0.5-0.1-0.6-0.3l-0.5-1c-0.1-0.1-0.2-0.2-0.4-0.2h-0.3v1.4h-0.9L182.9,14.2z M184.3,15.4c0.3,0,0.5-0.2,0.6-0.5
	c0,0,0-0.1,0-0.1c0-0.3-0.2-0.5-0.4-0.6c0,0-0.1,0-0.1,0h-0.5v1.2L184.3,15.4z"/>
</svg>
