<?xml version="1.0" encoding="utf-8"?>
<!-- Generator: Adobe Illustrator 22.1.0, SVG Export Plug-In . SVG Version: 6.00 Build 0)  -->
<svg version="1.2" baseProfile="tiny" id="Ebene_1" xmlns="http://www.w3.org/2000/svg" xmlns:xlink="http://www.w3.org/1999/xlink"
	 x="0px" y="0px" viewBox="0 0 198.4 47.5" xml:space="preserve">
<title>cen-logo</title>
<rect width="198.4" height="47.5"/>
<path fill="#FFFFFF" d="M38.3,22c0-1.7-1.3-3-3-3c-1.8-0.1-3.4,1.2-3.6,3H38.3z M35.4,16.1c4.2,0,6.5,3.1,6.5,7.1
	c0,0.4-0.1,1.4-0.1,1.4H31.7c0.1,2.3,2.1,4.1,4.4,4c1.6-0.1,3.1-0.7,4.4-1.8l1.5,2.7c-1.7,1.4-3.9,2.2-6.2,2.2
	c-4.2,0.2-7.8-3.1-7.9-7.3c0-0.2,0-0.4,0-0.5C27.9,19.3,31,16.1,35.4,16.1"/>
<path fill="#FFFFFF" d="M124,22c0-1.7-1.3-3-3-3c-1.8-0.1-3.3,1.2-3.6,3H124z M121.1,16.1c4.2,0,6.6,3.1,6.6,7.1
	c0,0.4-0.1,1.4-0.1,1.4h-10.2c0.1,2.3,2.1,4.1,4.4,4c1.6-0.1,3.1-0.7,4.4-1.8l1.5,2.7c-1.7,1.4-3.9,2.2-6.2,2.2
	c-4.2,0.2-7.8-3.1-7.9-7.3c0-0.2,0-0.4,0-0.6C113.6,19.3,116.6,16.1,121.1,16.1"/>
<path fill="#FFFFFF" d="M43.7,20c0-0.4-0.4-0.6-0.8-0.6H42c-0.4-1.3-1.3-2.3-2.5-3h5.8c1.3,0,1.9,0.6,1.9,1.7v0.4
	c0,0.2,0,0.4-0.1,0.6h0.1c1-2,3-3.2,5.2-3.1c3.3,0,5.2,1.7,5.2,5.9v5.6c0,0.3,0.2,0.6,0.5,0.6c0,0,0.1,0,0.1,0h1v3.1h-3.4
	c-1.4,0-2-0.6-2-2v-6.8c0-1.8-0.5-3-2.3-3c-1.9,0-3.5,1.2-4,3c-0.2,0.6-0.3,1.3-0.3,2v6.9h-3.6V20z"/>
<path fill="#FFFFFF" d="M64,19.4v6c-0.2,1.4,0.8,2.6,2.1,2.8c0.2,0,0.4,0,0.6,0H67v3.2h-0.7c-2.1,0-5.9-0.6-5.9-5.6v-6.4h-2.2
	c-0.2-1.2-0.9-2.3-1.9-3h4.2v-4.7H64v4.8h6.6c1.3,0,2,0.6,2,1.8v0.9c0,0.3,0,0.6-0.1,0.9h0.1c0.6-2.2,2.5-3.7,4.7-3.8
	c1.6,0,1.8,0.2,1.8,0.2c-1.1,0.7-1.8,1.9-1.7,3.2l0,0c-2.1-0.1-3.9,1.3-4.4,3.4c-0.2,0.8-0.3,1.6-0.3,2.4v5.9h-3.7V20
	c0-0.3-0.2-0.6-0.5-0.6c-0.1,0-0.1,0-0.2,0L64,19.4z"/>
<path fill="#FFFFFF" d="M146,19.4v6c-0.2,1.4,0.7,2.6,2.1,2.8c0.2,0,0.4,0,0.6,0h0.2v3.3h-0.5c-2.1,0-6.1-0.6-6.1-5.6v-6.5H140v-0.3
	c0-1.1-0.7-2.2-1.7-2.6h4.1v-4.8h3.6v4.8h5.9c-1.1,0.6-1.7,1.8-1.7,3L146,19.4z"/>
<path fill="#FFFFFF" d="M83.2,28.8c2,0,3.4-2.1,3.4-3.9v-0.4H86c-1.9,0-5,0.3-5,2.4c0,1.1,0.9,2,2,2C83.1,28.8,83.2,28.8,83.2,28.8
	 M86,22h0.5v-0.1c0-2.1-0.8-2.9-2.7-2.9c-0.7,0-2,0.2-2,1v1h-3.4v-1.2c0-3.3,3.9-3.6,5.4-3.6c4.9,0,6.4,2.6,6.4,6v5.6
	c0,0.3,0.2,0.6,0.5,0.6c0,0,0.1,0,0.1,0H92v1.2c0,1.5,0.6,1.9,0.6,1.9h-4c-1.4,0-1.9-0.8-1.9-1.6c0-0.4,0-0.6,0-0.6h-0.1
	c-0.8,1.7-2.6,2.7-4.5,2.6c-2.6,0-5-1.7-5-4.7C77.2,22.4,83.6,22,86,22"/>
<path fill="#FFFFFF" d="M92.9,15.6c0-0.4-0.2-0.9-0.6-0.9h-0.5v-3.2h2.9c1.4,0,2,0.6,2,2v14c0,0.3,0.2,0.6,0.5,0.6c0,0,0.1,0,0.1,0
	h1v3.1h-3.4c-1.4,0-2-0.6-2-2L92.9,15.6z"/>
<path fill="#FFFFFF" d="M155.9,28.8c2,0,3.4-2.1,3.4-3.9v-0.4h-0.6c-1.9,0-5,0.3-5,2.4c0,1.1,0.9,2,2,2
	C155.8,28.8,155.8,28.8,155.9,28.8 M158.7,22h0.5v-0.1c0-2.1-0.8-2.9-2.7-2.9c-0.7,0-2,0.2-2,1v1H151v-1.2c0-3.3,3.9-3.6,5.4-3.6
	c4.9,0,6.4,2.6,6.4,6v5.6c0,0.3,0.2,0.6,0.5,0.6c0,0,0.1,0,0.1,0h1.2v1.2c0,1.5,0.6,1.9,0.6,1.9h-4c-1.4,0-1.9-0.8-1.9-1.6
	c0-0.4,0-0.6,0-0.6h-0.1c-0.8,1.6-2.5,2.6-4.4,2.6c-2.6,0-5-1.7-5-4.7C150,22.4,156.4,22,158.7,22"/>
<path fill="#FFFFFF" d="M165.6,16.4c0-0.4-0.2-1.6-0.6-1.6h-0.5v-3.2h2.9c1.4,0,2,0.6,2,2v14c0,0.3,0.2,0.6,0.5,0.6c0,0,0.1,0,0.1,0
	h1.1v3.1h-3.4c-1.4,0-2-0.6-2-2L165.6,16.4z"/>
<path fill="#FFFFFF" d="M109.1,23.5c0-3.4-1.7-4.3-3.7-4.3c-2.2,0-3.4,1.6-3.4,4.2s1.3,4.5,3.7,4.5
	C107.4,27.9,109.1,26.9,109.1,23.5 M104.8,16.1c3.4,0,4.6,2.1,4.6,2.1h0.1v-0.4c0-0.7,0.5-1.4,1.6-1.4h2.9v3h-0.6
	c-0.3,0-0.6,0.2-0.6,0.5c0,0,0,0.1,0,0.1v10.5c0,4.3-4.2,6.9-7.8,6.9h-6.6l1.9-3.2h5.3c1.9-0.1,3.5-1.6,3.5-3.5v-0.7
	c0-0.4,0-0.8,0-0.8l0,0c-0.9,1.3-2.5,2.1-4.1,1.9c-4.2,0-6.6-3.5-6.6-7.6S100.5,16.1,104.8,16.1"/>
<path fill="#FFFFFF" d="M129.7,26.8c1.1,1,2.6,1.7,4.1,1.8c1.3,0,2.7-0.4,2.6-1.9c-0.1-2.4-8.1-1.2-8.1-6.2c0-3,2.7-4.4,5.7-4.4
	c2,0,5.2,0.7,5.2,3.1V21h-3.2v-1c0-0.7-1-1-1.9-1c-1.3,0-2.2,0.5-2.2,1.4c0,2.9,8.2,1.6,8.2,6.7c0,2.9-2.7,4.7-6,4.7
	c-2.2,0-4.3-0.8-5.9-2.3L129.7,26.8z"/>
<path fill="#FFFFFF" d="M172.2,19.4h-2.1v-3h2.2v-4.7h3.6v4.8h3.9v3h-3.8v5.9c-0.1,1.5,1,2.7,2.4,2.8c0.2,0,0.3,0,0.5,0h0.9v3.3
	h-1.4c-2.1,0-6.1-0.6-6.1-5.6L172.2,19.4z"/>
<path fill="#FFFFFF" d="M21.9,16.1c1.9,0,5.4,0.8,5.4,3.4V21H24v-0.6c0-0.8-1.2-1.2-2.1-1.2c-2.4,0-4.4,1.9-4.4,4.4
	c0,0.1,0,0.2,0,0.3c-0.1,2.4,1.8,4.5,4.2,4.6c0.1,0,0.3,0,0.4,0c1.9-0.1,3.8-0.8,5.3-2.1c0.3,1.1,0.7,2,1.4,2.9
	c-1.9,1.7-4.4,2.5-7,2.5c-4.2,0.2-7.8-3-8-7.2c0-0.2,0-0.4,0-0.6c-0.1-4.2,3.2-7.7,7.5-7.8C21.5,16.1,21.7,16.1,21.9,16.1"/>
<path fill="#FFFFFF" d="M184.3,11.6c0,0-0.1,0-0.1,0c-2.1,0-3.8,1.8-3.8,3.9c0,0,0,0.1,0,0.1c0.1,2.1,1.8,3.8,3.9,3.8
	c0,0,0.1,0,0.1,0c2.1-0.1,3.8-1.8,3.8-4C188.1,13.3,186.4,11.6,184.3,11.6L184.3,11.6z M184.3,18.5
	C184.2,18.5,184.2,18.5,184.3,18.5c-1.7-0.1-3-1.4-3-3c0-0.1,0-0.2,0-0.3c0.1-1.5,1.4-2.7,3-2.7c0.1,0,0.1,0,0.2,0
	c1.7,0.1,2.9,1.5,2.8,3c0,0,0,0,0,0.1C187.3,17.1,186,18.5,184.3,18.5L184.3,18.5z M184.6,13.5C184.6,13.5,184.6,13.5,184.6,13.5
	l-2.1,0v0.7h0.3l0,3.2h0.9v-1.4h0.3c0,0,0,0,0.1,0c0.1,0,0.2,0.1,0.3,0.2l0.5,1c0.1,0.2,0.3,0.3,0.5,0.3c0,0,0.1,0,0.1,0h0.5v-0.6
	h-0.1c0,0,0,0,0,0c-0.1,0-0.2-0.1-0.2-0.1l-0.3-0.6c-0.1-0.1-0.1-0.2-0.2-0.2c0.4-0.1,0.7-0.5,0.7-1c0,0,0-0.1,0-0.1
	C185.8,14,185.2,13.5,184.6,13.5L184.6,13.5z M183.8,15.4v-1.2h0.5c0,0,0,0,0,0c0,0,0,0,0.1,0c0.3,0,0.5,0.3,0.4,0.6
	c0,0,0,0.1,0,0.1c0,0.3-0.3,0.5-0.5,0.5c0,0,0,0,0,0L183.8,15.4L183.8,15.4z"/>
</svg>
