<svg id="Ebene_1" data-name="Ebene 1" xmlns="http://www.w3.org/2000/svg" viewBox="0 0 198.43 47.48"><defs><style>.cls-1{fill:#009ee3;}.cls-2{fill:#fff;}</style></defs><title>cen-logo</title><rect class="cls-1" width="198.43" height="47.48"/><path class="cls-2" d="M38.32,22a3,3,0,0,0-3-3,3.55,3.55,0,0,0-3.63,3Zm-2.91-5.9c4.23,0,6.55,3.14,6.55,7.1,0,.44-.09,1.38-.09,1.38H31.67a4.27,4.27,0,0,0,4.44,4,7.48,7.48,0,0,0,4.37-1.79L42,29.47a9.91,9.91,0,0,1-6.17,2.25,7.62,7.62,0,0,1-7.94-7.83c0-4.6,3.08-7.83,7.51-7.83"/><path class="cls-2" d="M124,22a3,3,0,0,0-3-3,3.56,3.56,0,0,0-3.63,3Zm-2.91-5.9c4.23,0,6.55,3.14,6.55,7.1,0,.44-.08,1.38-.08,1.38H117.33a4.27,4.27,0,0,0,4.44,4,7.47,7.47,0,0,0,4.37-1.79l1.54,2.69a9.91,9.91,0,0,1-6.17,2.25,7.62,7.62,0,0,1-7.95-7.83c0-4.6,3.08-7.83,7.51-7.83"/><path class="cls-2" d="M43.71,20c0-.44-.36-.64-.77-.64H42a5.51,5.51,0,0,0-2.5-3h5.84c1.3,0,1.94.62,1.94,1.68v.43a4.24,4.24,0,0,1-.06.65h.06a5.69,5.69,0,0,1,5.22-3.11c3.27,0,5.16,1.74,5.16,5.92v5.61a.58.58,0,0,0,.64.64h1v3.14H55.92c-1.39,0-2-.59-2-2V22.52c0-1.82-.46-3.05-2.32-3.05a4.06,4.06,0,0,0-4,3.05,6.29,6.29,0,0,0-.29,2v6.87H43.71Z"/><path class="cls-2" d="M64,19.37v6a2.5,2.5,0,0,0,2.71,2.82H67v3.25l-.68,0c-2.06,0-5.93-.61-5.93-5.63V19.37H58.15a4.25,4.25,0,0,0-1.89-3h4.19V11.63H64v4.78h6.64c1.3,0,2,.56,2,1.82v.88a6.58,6.58,0,0,1-.06.94h.06a5.17,5.17,0,0,1,4.7-3.84c1.56,0,1.85.22,1.85.22a3.46,3.46,0,0,0-1.69,3.22h0A4.3,4.3,0,0,0,73.1,23a9.19,9.19,0,0,0-.32,2.44v5.92H69.13V20a.57.57,0,0,0-.65-.64Z"/><path class="cls-2" d="M146,19.37v6a2.48,2.48,0,0,0,2.71,2.82h.23v3.28h-.47c-2.06,0-6.15-.61-6.15-5.63V19.37H140v-.32a2.85,2.85,0,0,0-1.72-2.64h4.11V11.63H146v4.78h5.92a3.41,3.41,0,0,0-1.72,3Z"/><path class="cls-2" d="M83.24,28.82c2,0,3.36-2.11,3.36-3.94v-.35H86c-1.91,0-5,.26-5,2.35a2,2,0,0,0,2.23,1.94M86,22h.46v-.12c0-2.15-.84-2.93-2.72-2.93-.67,0-2,.17-2,1v1H78.36V19.71c0-3.34,3.88-3.65,5.42-3.65,4.93,0,6.37,2.61,6.37,6v5.58a.59.59,0,0,0,.64.64h1.25v1.25c0,1.45.63,1.89.63,1.89h-4c-1.36,0-1.88-.76-1.88-1.64,0-.38,0-.65,0-.65h-.06a4.82,4.82,0,0,1-4.47,2.64c-2.63,0-5-1.67-5-4.66C77.24,22.37,83.61,22,86,22"/><path class="cls-2" d="M92.9,15.65c0-.44-.23-.85-.64-.85h-.52V11.63h2.87c1.37,0,2,.62,2,2v14a.58.58,0,0,0,.64.64h1v3.14H94.87c-1.39,0-2-.58-2-2Z"/><path class="cls-2" d="M155.93,28.82c2,0,3.36-2.11,3.36-3.94v-.35h-.64c-1.91,0-5,.26-5,2.35a2,2,0,0,0,2.23,1.94M158.7,22h.46v-.12c0-2.15-.84-2.93-2.72-2.93-.67,0-2,.17-2,1v1H151V19.71c0-3.34,3.89-3.65,5.42-3.65,4.93,0,6.38,2.61,6.38,6v5.58a.59.59,0,0,0,.64.64h1.25v1.25c0,1.45.61,1.89.61,1.89h-4c-1.36,0-1.88-.76-1.88-1.64,0-.38,0-.65,0-.65h-.06A4.82,4.82,0,0,1,155,31.72c-2.64,0-5-1.67-5-4.66,0-4.69,6.37-5.07,8.78-5.07"/><path class="cls-2" d="M165.59,16.35c0-.44-.23-1.55-.64-1.55h-.52V11.63h2.87c1.37,0,2,.62,2,2v14a.59.59,0,0,0,.64.64H171v3.14h-3.43c-1.39,0-2-.59-2-2Z"/><path class="cls-2" d="M109.08,23.54c0-3.41-1.68-4.31-3.68-4.31-2.24,0-3.45,1.64-3.45,4.17s1.3,4.54,3.68,4.54c1.77,0,3.45-1,3.45-4.4m-4.32-7.49c3.42,0,4.56,2.11,4.56,2.11h.06v-.38c0-.67.46-1.38,1.62-1.38h2.88v3h-.59a.57.57,0,0,0-.64.59V30.47c0,4.33-4.21,6.95-7.8,6.95H98.27l1.93-3.23h5.26A3.68,3.68,0,0,0,109,30.65v-.71c0-.35,0-.79,0-.79H109a4.57,4.57,0,0,1-4.12,1.94c-4.23,0-6.64-3.46-6.64-7.57s2.29-7.46,6.56-7.46"/><path class="cls-2" d="M129.67,26.77a6.82,6.82,0,0,0,4.07,1.8c1.32,0,2.73-.37,2.65-1.92-.13-2.36-8.13-1.18-8.13-6.21,0-3,2.67-4.38,5.74-4.38,2,0,5.19.68,5.19,3.11V21h-3.25V20c0-.7-1-1.05-1.86-1.05-1.3,0-2.21.47-2.21,1.35,0,2.86,8.19,1.58,8.19,6.74,0,2.86-2.72,4.71-6,4.71a9.4,9.4,0,0,1-5.93-2.26Z"/><path class="cls-2" d="M172.21,19.37h-2.1v-3h2.19V11.63h3.59v4.78h3.85v3H175.9v5.89a2.64,2.64,0,0,0,2.93,2.82h.92v3.29h-1.39c-2.06,0-6.15-.62-6.15-5.64Z"/><path class="cls-2" d="M21.93,16.06c1.91,0,5.36.79,5.36,3.38v1.52H24v-.57c0-.83-1.22-1.18-2.12-1.18a4.37,4.37,0,0,0-4.38,4.66,4.4,4.4,0,0,0,4.61,4.61,8.31,8.31,0,0,0,5.27-2.09,7.11,7.11,0,0,0,1.43,2.88,10.19,10.19,0,0,1-7,2.46,7.63,7.63,0,0,1-8-7.83,7.66,7.66,0,0,1,8.09-7.83"/><path class="cls-2" d="M184.18,11.6a3.89,3.89,0,1,1-3.79,3.88A3.84,3.84,0,0,1,184.18,11.6Zm0,6.92a2.92,2.92,0,0,0,2.89-3,2.87,2.87,0,1,0-5.73,0A2.91,2.91,0,0,0,184.18,18.52Zm-1.33-4.34h-.34v-.66h2a1.18,1.18,0,0,1,1.27,1.23,1,1,0,0,1-.69,1v0a.43.43,0,0,1,.24.21l.34.64a.23.23,0,0,0,.23.13H186v.65h-.51a.51.51,0,0,1-.55-.29l-.52-1a.33.33,0,0,0-.35-.17h-.3v1.43h-.9Zm1.4,1.16a.53.53,0,0,0,.56-.58.51.51,0,0,0-.55-.57h-.51v1.16Z"/></svg>